<svg width="115" height="18" viewBox="0 0 115 18" fill="none" xmlns="http://www.w3.org/2000/svg">
<path d="M16 9C16 11.1217 15.1571 13.1566 13.6569 14.6569C12.1566 16.1571 10.1217 17 8 17C5.87827 17 3.84344 16.1571 2.34315 14.6569C0.842855 13.1566 0 11.1217 0 9C0 6.87827 0.842855 4.84344 2.34315 3.34315C3.84344 1.84285 5.87827 1 8 1C10.1217 1 12.1566 1.84285 13.6569 3.34315C15.1571 4.84344 16 6.87827 16 9ZM8 5C7.87361 5.00007 7.74863 5.02662 7.63312 5.07793C7.51761 5.12924 7.41413 5.20418 7.32934 5.29791C7.24456 5.39165 7.18035 5.5021 7.14084 5.62217C7.10134 5.74223 7.08743 5.86923 7.1 5.995L7.45 9.502C7.46176 9.63977 7.5248 9.76811 7.62664 9.86164C7.72849 9.95516 7.86173 10.0071 8 10.0071C8.13827 10.0071 8.27151 9.95516 8.37336 9.86164C8.4752 9.76811 8.53824 9.63977 8.55 9.502L8.9 5.995C8.91257 5.86923 8.89866 5.74223 8.85915 5.62217C8.81965 5.5021 8.75544 5.39165 8.67066 5.29791C8.58587 5.20418 8.48239 5.12924 8.36688 5.07793C8.25137 5.02662 8.12639 5.00007 8 5ZM8.002 11C7.73678 11 7.48243 11.1054 7.29489 11.2929C7.10736 11.4804 7.002 11.7348 7.002 12C7.002 12.2652 7.10736 12.5196 7.29489 12.7071C7.48243 12.8946 7.73678 13 8.002 13C8.26722 13 8.52157 12.8946 8.70911 12.7071C8.89664 12.5196 9.002 12.2652 9.002 12C9.002 11.7348 8.89664 11.4804 8.70911 11.2929C8.52157 11.1054 8.26722 11 8.002 11Z" fill="#495057"/>
<path opacity="0.8" d="M25.0568 4.27273V13H26.0455V6.36932H26.1307L28.858 13H29.8125L32.5398 6.36932H32.625V13H33.6136V4.27273H32.3523L29.3864 11.517H29.2841L26.3182 4.27273H25.0568ZM37.5224 13.1534C38.6644 13.1534 39.261 12.5398 39.4656 12.1136H39.5167V13H40.5224V8.6875C40.5224 6.60795 38.9371 6.36932 38.1019 6.36932C37.1133 6.36932 35.9883 6.71023 35.4769 7.90341L36.4315 8.24432C36.6531 7.76705 37.1772 7.25568 38.136 7.25568C39.0607 7.25568 39.5167 7.74574 39.5167 8.58523V8.61932C39.5167 9.10511 39.0224 9.0625 37.8292 9.21591C36.6147 9.37358 35.2894 9.64205 35.2894 11.142C35.2894 12.4205 36.2781 13.1534 37.5224 13.1534ZM37.6758 12.25C36.8746 12.25 36.2951 11.892 36.2951 11.1932C36.2951 10.4261 36.994 10.1875 37.7781 10.0852C38.2042 10.0341 39.3462 9.91477 39.5167 9.71023V10.6307C39.5167 11.4489 38.869 12.25 37.6758 12.25ZM37.7099 5.56818H38.5962L39.9258 3.59091H38.7496L37.7099 5.56818ZM43.108 6.45455H41.9489L44.0284 9.72727L41.9489 13H43.108L44.6761 10.4602L46.2443 13H47.4034L45.2898 9.72727L47.4034 6.45455H46.2443L44.6761 9.13068L43.108 6.45455ZM49.5714 13.0682C49.9933 13.0682 50.3384 12.723 50.3384 12.3011C50.3384 11.8793 49.9933 11.5341 49.5714 11.5341C49.1495 11.5341 48.8043 11.8793 48.8043 12.3011C48.8043 12.723 49.1495 13.0682 49.5714 13.0682ZM57.9897 13.1364C59.2511 13.1364 59.6772 12.3523 59.8988 11.9943H60.0181V13H60.9897V4.27273H59.984V7.49432H59.8988C59.6772 7.15341 59.2852 6.36932 58.0067 6.36932C56.3533 6.36932 55.2113 7.68182 55.2113 9.74432C55.2113 11.8239 56.3533 13.1364 57.9897 13.1364ZM58.1261 12.233C56.8647 12.233 56.217 11.125 56.217 9.72727C56.217 8.34659 56.8477 7.27273 58.1261 7.27273C59.3533 7.27273 60.0011 8.26136 60.0011 9.72727C60.0011 11.2102 59.3363 12.233 58.1261 12.233ZM65.7156 13.1364C67.0451 13.1364 68.0167 12.4716 68.3235 11.483L67.3519 11.2102C67.0962 11.892 66.5039 12.233 65.7156 12.233C64.5352 12.233 63.7212 11.4702 63.6744 10.0682H68.4258V9.64205C68.4258 7.20455 66.9769 6.36932 65.6133 6.36932C63.8406 6.36932 62.6644 7.76705 62.6644 9.77841C62.6644 11.7898 63.8235 13.1364 65.7156 13.1364ZM63.6744 9.19886C63.7425 8.1804 64.4627 7.27273 65.6133 7.27273C66.7042 7.27273 67.4031 8.09091 67.4031 9.19886H63.6744ZM76.109 13.1193C77.8519 13.1193 79.0664 12.1009 79.0749 10.6818C79.0664 9.57812 78.3292 8.64062 77.3874 8.46591V8.41477C78.2056 8.2017 78.7425 7.40057 78.7511 6.47159C78.7425 5.14205 77.6261 4.15341 76.109 4.15341C74.5749 4.15341 73.4585 5.14205 73.467 6.47159C73.4585 7.40057 73.9954 8.2017 74.8306 8.41477V8.46591C73.8718 8.64062 73.1346 9.57812 73.1431 10.6818C73.1346 12.1009 74.3491 13.1193 76.109 13.1193ZM76.109 12.1818C74.9116 12.1818 74.1744 11.5682 74.1829 10.6307C74.1744 9.64631 74.9883 8.94318 76.109 8.94318C77.2127 8.94318 78.0266 9.64631 78.0352 10.6307C78.0266 11.5682 77.2894 12.1818 76.109 12.1818ZM76.109 8.03977C75.1545 8.03977 74.4812 7.44318 74.4897 6.53977C74.4812 5.65341 75.1289 5.07386 76.109 5.07386C77.0721 5.07386 77.7198 5.65341 77.7283 6.53977C77.7198 7.44318 77.0465 8.03977 76.109 8.03977ZM85.1058 4.27273H84.1001V13H85.1058V4.27273ZM89.6921 13.1364C91.0217 13.1364 91.9933 12.4716 92.3001 11.483L91.3285 11.2102C91.0728 11.892 90.4805 12.233 89.6921 12.233C88.5117 12.233 87.6978 11.4702 87.6509 10.0682H92.4023V9.64205C92.4023 7.20455 90.9535 6.36932 89.5898 6.36932C87.8171 6.36932 86.641 7.76705 86.641 9.77841C86.641 11.7898 87.8001 13.1364 89.6921 13.1364ZM87.6509 9.19886C87.7191 8.1804 88.4393 7.27273 89.5898 7.27273C90.6808 7.27273 91.3796 8.09091 91.3796 9.19886H87.6509ZM96.7788 6.45455H95.381V4.88636H94.3754V6.45455H93.3867V7.30682H94.3754V11.3977C94.3754 12.5398 95.2958 13.0852 96.1481 13.0852C96.5231 13.0852 96.7617 13.017 96.8981 12.9659L96.6935 12.0625C96.6083 12.0795 96.4719 12.1136 96.2504 12.1136C95.8072 12.1136 95.381 11.9773 95.381 11.125V7.30682H96.7788V6.45455ZM98.2915 13H99.2972V8.85795C99.2972 7.97159 99.9961 7.32386 100.951 7.32386C101.219 7.32386 101.496 7.375 101.564 7.39205V6.36932C101.449 6.3608 101.185 6.35227 101.036 6.35227C100.252 6.35227 99.57 6.79545 99.3313 7.44318H99.2631V6.45455H98.2915V13ZM104.683 13.1534C105.825 13.1534 106.421 12.5398 106.626 12.1136H106.677V13H107.683V8.6875C107.683 6.60795 106.097 6.36932 105.262 6.36932C104.273 6.36932 103.148 6.71023 102.637 7.90341L103.592 8.24432C103.813 7.76705 104.337 7.25568 105.296 7.25568C106.221 7.25568 106.677 7.74574 106.677 8.58523V8.61932C106.677 9.10511 106.183 9.0625 104.989 9.21591C103.775 9.37358 102.45 9.64205 102.45 11.142C102.45 12.4205 103.438 13.1534 104.683 13.1534ZM104.836 12.25C104.035 12.25 103.455 11.892 103.455 11.1932C103.455 10.4261 104.154 10.1875 104.938 10.0852C105.364 10.0341 106.506 9.91477 106.677 9.71023V10.6307C106.677 11.4489 106.029 12.25 104.836 12.25ZM114.154 7.92045C113.839 6.99148 113.132 6.36932 111.836 6.36932C110.456 6.36932 109.433 7.15341 109.433 8.26136C109.433 9.16477 109.97 9.76989 111.172 10.0511L112.262 10.3068C112.923 10.4602 113.234 10.7756 113.234 11.2273C113.234 11.7898 112.637 12.25 111.7 12.25C110.877 12.25 110.362 11.8963 110.183 11.1932L109.228 11.4318C109.463 12.544 110.379 13.1364 111.717 13.1364C113.238 13.1364 114.274 12.3054 114.274 11.1761C114.274 10.2642 113.703 9.68892 112.535 9.40341L111.564 9.16477C110.788 8.97301 110.439 8.71307 110.439 8.21023C110.439 7.64773 111.035 7.23864 111.836 7.23864C112.714 7.23864 113.076 7.72443 113.251 8.17614L114.154 7.92045Z" fill="#495057"/>
</svg>
